<?xml version="1.0" encoding="UTF-8" standalone="no"?>
<svg
   xmlns:dc="http://purl.org/dc/elements/1.1/"
   xmlns:cc="http://creativecommons.org/ns#"
   xmlns:rdf="http://www.w3.org/1999/02/22-rdf-syntax-ns#"
   xmlns:svg="http://www.w3.org/2000/svg"
   xmlns="http://www.w3.org/2000/svg"
   xmlns:sodipodi="http://sodipodi.sourceforge.net/DTD/sodipodi-0.dtd"
   xmlns:inkscape="http://www.inkscape.org/namespaces/inkscape"
   id="Division_Line_4"
   width="1920"
   height="160"
   viewBox="0 0 1920 160"
   version="1.1"
   sodipodi:docname="pattern-04.svg"
   inkscape:version="1.0.1 (c497b03c, 2020-09-10)">
  <metadata
     id="metadata232">
    <rdf:RDF>
      <cc:Work
         rdf:about="">
        <dc:format>image/svg+xml</dc:format>
        <dc:type
           rdf:resource="http://purl.org/dc/dcmitype/StillImage" />
        <dc:title></dc:title>
      </cc:Work>
    </rdf:RDF>
  </metadata>
  <sodipodi:namedview
     pagecolor="#ffffff"
     bordercolor="#666666"
     borderopacity="1"
     objecttolerance="10"
     gridtolerance="10"
     guidetolerance="10"
     inkscape:pageopacity="0"
     inkscape:pageshadow="2"
     inkscape:window-width="2560"
     inkscape:window-height="1395"
     id="namedview230"
     showgrid="false"
     inkscape:zoom="0.80728024"
     inkscape:cx="960"
     inkscape:cy="100"
     inkscape:window-x="0"
     inkscape:window-y="23"
     inkscape:window-maximized="1"
     inkscape:current-layer="Division_Line_4" />
  <defs
     id="defs206">
    <clipPath
       id="clip-path">
      <path
         id="Rectangle_1088"
         fill="#ffffff"
         stroke="#707070"
         d="M 0,0 H 1920 V 200 H 0 Z"
         opacity="0.764"
         transform="translate(0,1442)" />
    </clipPath>
    <style
       id="style204">
            .cls-4,.cls-7{fill:none;stroke:#e60000;stroke-miterlimit:10}.cls-4{stroke-width:4px}.cls-7{opacity:.4}
        </style>
  </defs>
  <g
     id="Mask_Group_137"
     clip-path="url(#clip-path)"
     transform="translate(0,-1444)">
    <g
       id="Group_10430"
       transform="translate(-2.805,-565.358)">
      <g
         id="Group_10422"
         transform="rotate(2,989.637,1336.67)">
        <path
           id="Path_13827"
           fill="none"
           stroke="#e60000"
           stroke-miterlimit="10"
           stroke-width="4px"
           d="m -23.664,2042.708 c 75.938,9.666 152.861,33.417 228.252,37.518 76.237,4.148 149.224,-11.515 224.9,-11.679 76.248,-0.166 152.793,23.821 228.475,20.691 76.166,-3.15 152.93,-39.5 228.522,-44.207 76.12,-4.745 153.633,16.031 229.169,11.172 76.159,-4.9 148.287,-29.347 223.854,-32.853 76.255,-3.539 152.926,20 228.578,19.426 76.268,-0.579 152.834,-25.238 228.489,-21.219 75.944,4.034 141.428,27.236 228.779,13.237"
           opacity="0.6"
           transform="rotate(-2,995.68,2049.465)" />
      </g>
      <g
         id="Group_10423">
        <path
           id="Path_13828"
           d="m 12.432,2025.391 c 74.946,3.445 134.386,31.019 209.312,31.848 74.989,0.829 128.229,-7.807 203.172,-8.86 74.985,-1.054 150.5,23.13 225.417,20.933 74.98,-2.2 172.842,-52.792 247.723,-55.394 74.99,-2.6 150.766,20.76 225.631,18.495 75.021,-2.269 137.609,5.964 212.479,4.786 75.055,-1.18 150.115,24.374 224.99,25.046 75.043,0.674 150.677,-23.519 225.513,-20.225 74.916,3.3 147.99,34.036 222.672,40.724"
           class="cls-4" />
      </g>
      <g
         id="Group_10424">
        <path
           id="Path_13829"
           d="m -10.624,2056.881 c 74.99,8.9 147.754,40.465 222.436,43.642 75.253,3.2 163.962,-35.018 238.853,-36.125 75.244,-1.111 151.168,21.963 226,18.024 75.174,-3.957 135.263,-22 209.964,-27.266 75.165,-5.3 151.871,15.067 226.5,10.012 75.258,-5.1 148.791,-35.628 223.455,-38.867 75.392,-3.271 150.983,20.8 225.713,21.084 75.383,0.282 151.436,-23.171 226.088,-17.576 74.913,5.614 98.613,13.668 225.641,25.365"
           class="cls-4" />
      </g>
      <g
         id="Group_10425">
        <path
           id="Path_13830"
           fill="none"
           stroke="#e60000"
           stroke-miterlimit="10"
           stroke-width="8px"
           d="m -11.1,2030.721 c 2.146,-1.186 39.971,20.679 167.688,19.144 127.717,-1.535 204.444,-25.84 279.334,-26.947 75.245,-1.111 148.105,28.676 222.932,24.737 75.174,-3.958 152.593,-13.392 227.295,-18.659 75.165,-5.3 151.87,15.067 226.5,10.012 75.259,-5.1 142.471,-26.657 217.134,-29.9 75.393,-3.271 157.3,11.834 232.034,12.113 75.384,0.282 151.436,-23.171 226.088,-17.576 74.913,5.614 155.438,13.489 231.315,-0.788" />
      </g>
      <g
         id="Group_10426"
         transform="translate(36.538,-17.105)">
        <path
           id="Path_13831"
           fill="none"
           stroke="#e60000"
           stroke-miterlimit="10"
           stroke-width="2px"
           d="m -10.978,2085.084 c 75.038,9.622 147.8,41.37 222.566,44.354 75.365,3.007 150.741,-22.9 225.707,-24.846 75.346,-1.959 151.69,20 226.507,14.852 75.269,-5.178 148.208,-37.427 222.812,-43.98 75.3,-6.615 152.428,12.45 226.919,6.334 75.483,-6.2 148.807,-37.589 223.323,-41.3 75.718,-3.772 151.4,20.235 225.973,21.1 75.7,0.875 152.276,-21.255 226.646,-13.444 74.863,7.863 113.18,19.448 221.617,-27.28"
           opacity="0.6" />
      </g>
      <g
         id="Group_10427"
         transform="translate(-36.374,17.741)">
        <path
           id="Path_13832"
           d="m -10.978,2093.084 c 75.038,9.622 147.8,41.37 222.566,44.354 75.365,3.007 150.742,-22.9 225.707,-24.846 75.346,-1.958 151.69,20 226.507,14.852 75.269,-5.178 148.208,-37.427 222.812,-43.98 75.3,-6.614 152.428,12.45 226.919,6.334 75.483,-6.2 148.807,-37.589 223.323,-41.3 75.718,-3.772 151.4,20.235 225.973,21.1 75.7,0.875 152.276,-21.255 226.646,-13.444 74.863,7.863 144.7,45.381 218.068,62.489"
           class="cls-7" />
      </g>
      <g
         id="Group_10428"
         transform="translate(1.501,1.974)">
        <path
           id="Path_13833"
           fill="none"
           stroke="#e60000"
           stroke-miterlimit="10"
           d="m -10.978,2103.178 c 75.038,9.622 147.8,41.37 222.566,44.354 75.365,3.008 150.742,-22.9 225.707,-24.846 75.346,-1.958 151.69,20 226.507,14.852 75.269,-5.178 148.208,-37.427 222.812,-43.98 75.3,-6.614 152.428,12.45 226.919,6.334 75.483,-6.2 148.807,-37.588 223.323,-41.3 75.718,-3.772 151.4,20.234 225.973,21.1 75.7,0.874 130.066,-30.952 246.038,-39.5 115.972,-8.548 116.2,-16.771 206.907,-36.257"
           opacity="0.2"
           transform="rotate(2,993.21,2129.944)" />
      </g>
      <g
         id="Group_10429"
         transform="translate(-36.726,17.753)">
        <path
           id="Path_13834"
           d="m -10.5,2113.272 c 75.038,9.622 147.8,41.371 222.566,44.354 75.364,3.008 150.741,-22.9 225.706,-24.845 75.347,-1.959 151.69,20 226.507,14.851 75.269,-5.177 148.208,-37.426 222.812,-43.98 75.3,-6.614 152.429,12.45 226.919,6.335 75.484,-6.2 148.807,-37.589 223.323,-41.3 75.719,-3.772 151.4,20.234 225.974,21.1 75.7,0.874 152.276,-21.256 226.646,-13.445 74.862,7.863 85.74,8.367 208.966,-17"
           class="cls-7"
           transform="rotate(2,1280.638,2044.83)" />
      </g>
      <g
         id="Group_10431"
         transform="rotate(2,704.396,2016.35)">
        <path
           id="Path_13834-2"
           fill="none"
           stroke="#e60000"
           stroke-miterlimit="10"
           d="m -10.5,2113.272 c 75.038,9.622 147.8,41.371 222.566,44.354 75.364,3.008 150.741,-22.9 225.706,-24.845 75.347,-1.959 151.69,20 226.507,14.851 75.269,-5.177 148.208,-37.426 222.812,-43.98 75.3,-6.614 152.429,12.45 226.919,6.335 75.484,-6.2 148.807,-37.589 223.323,-41.3 75.719,-3.772 151.4,20.234 225.974,21.1 75.7,0.874 137.722,-42.382 212.16,-48.545 101.455,-5.8 230.1,40.547 230.1,40.547"
           opacity="0.1"
           transform="translate(-38.726,7.752)" />
      </g>
    </g>
    <path
       id="Path_14374"
       fill="none"
       stroke="#e60000"
       stroke-width="12px"
       d="M 0,0 H 1920"
       transform="translate(0,1449)" />
  </g>
</svg>
